<mxfile host="app.diagrams.net" modified="2020-06-15T02:13:33.040Z" agent="5.0 (X11; Linux x86_64) AppleWebKit/537.36 (KHTML, like Gecko) Chrome/80.0.3987.122 Safari/537.36 OPR/67.0.3575.53" etag="dah80hGiGzFvmm7xOvBl" version="13.2.4" type="github" pages="3">
  <diagram id="c6oJV1lJlxx9KPndTJjn" name="Gis">
    <mxGraphModel dx="828" dy="492" grid="1" gridSize="10" guides="1" tooltips="1" connect="1" arrows="1" fold="1" page="1" pageScale="1" pageWidth="827" pageHeight="1169" math="0" shadow="0">
      <root>
        <mxCell id="0" />
        <mxCell id="1" parent="0" />
        <mxCell id="vq889GyKXpYUTjs0COaJ-1" value="" style="shape=image;html=1;verticalAlign=top;verticalLabelPosition=bottom;labelBackgroundColor=#ffffff;imageAspect=0;aspect=fixed;image=https://cdn2.iconfinder.com/data/icons/iconslandgps/PNG/128x128/GIS/Layers.png" parent="1" vertex="1">
          <mxGeometry x="10" y="10" width="128" height="128" as="geometry" />
        </mxCell>
        <mxCell id="cmLZ_VML1wn7hY4zESMu-1" value="&lt;p style=&quot;color: rgb(0 , 0 , 0) ; font-size: medium ; margin: 0px&quot;&gt;GDAL&lt;/p&gt;&lt;p style=&quot;color: rgb(0 , 0 , 0) ; font-size: medium ; margin: 0px&quot;&gt;GRASS LIBRARY&lt;/p&gt;&lt;p style=&quot;color: rgb(0 , 0 , 0) ; font-size: medium ; margin: 0px&quot;&gt;BANDAS&lt;/p&gt;&lt;p style=&quot;color: rgb(0 , 0 , 0) ; font-size: medium ; margin: 0px&quot;&gt;    Nir y rojo&lt;/p&gt;&lt;p style=&quot;color: rgb(0 , 0 , 0) ; font-size: medium ; margin: 0px&quot;&gt;    Re y rojo&lt;/p&gt;&lt;p style=&quot;color: rgb(0 , 0 , 0) ; font-size: medium ; margin: 0px&quot;&gt;GEODJANGO&lt;/p&gt;" style="shape=note;strokeWidth=2;fontSize=14;size=20;whiteSpace=wrap;html=1;fillColor=#fff2cc;strokeColor=#d6b656;fontColor=#666600;align=left;" vertex="1" parent="1">
          <mxGeometry x="150" y="40" width="180" height="170" as="geometry" />
        </mxCell>
      </root>
    </mxGraphModel>
  </diagram>
  <diagram id="yWmmMeBK83jpTaSedxE8" name="NDVI">
    <mxGraphModel dx="828" dy="492" grid="1" gridSize="10" guides="1" tooltips="1" connect="1" arrows="1" fold="1" page="1" pageScale="1" pageWidth="827" pageHeight="1169" math="0" shadow="0">
      <root>
        <mxCell id="7IifN1_Z7r3oow3OCa9Y-0" />
        <mxCell id="7IifN1_Z7r3oow3OCa9Y-1" parent="7IifN1_Z7r3oow3OCa9Y-0" />
        <mxCell id="7IifN1_Z7r3oow3OCa9Y-2" value="&lt;span style=&quot;color: rgba(0 , 0 , 0 , 0.87) ; font-family: &amp;#34;arial&amp;#34; , , sans-serif ; font-size: 24px ; text-align: left ; background-color: rgb(255 , 255 , 255)&quot;&gt;Índice de vegetación de diferencia normalizada&lt;/span&gt;" style="text;html=1;align=center;verticalAlign=middle;resizable=0;points=[];autosize=1;" parent="7IifN1_Z7r3oow3OCa9Y-1" vertex="1">
          <mxGeometry x="10" y="20" width="520" height="20" as="geometry" />
        </mxCell>
        <mxCell id="7IifN1_Z7r3oow3OCa9Y-3" value="" style="shape=image;verticalLabelPosition=bottom;labelBackgroundColor=#ffffff;verticalAlign=top;aspect=fixed;imageAspect=0;image=https://www.cursosteledeteccion.com/wp-content/uploads/2019/10/ndvi_que_es1.png;" parent="7IifN1_Z7r3oow3OCa9Y-1" vertex="1">
          <mxGeometry x="450" y="90" width="361.9" height="190" as="geometry" />
        </mxCell>
        <mxCell id="7IifN1_Z7r3oow3OCa9Y-4" value="" style="shape=image;verticalLabelPosition=bottom;labelBackgroundColor=#ffffff;verticalAlign=top;aspect=fixed;imageAspect=0;image=https://images.ctfassets.net/go54bjdzbrgi/4hbuMkNNLaea6sGSsaukyw/7a789deeedccf1ee5623d3d1184b7122/Pix4D_Deveron_usecase_NDVI.png;" parent="7IifN1_Z7r3oow3OCa9Y-1" vertex="1">
          <mxGeometry x="20" y="90" width="419" height="428.06" as="geometry" />
        </mxCell>
        <mxCell id="7IifN1_Z7r3oow3OCa9Y-5" value="Formula: NDVI = (NIR-Red)/(NIR+Red)" style="text;html=1;align=center;verticalAlign=middle;resizable=0;points=[];autosize=1;" parent="7IifN1_Z7r3oow3OCa9Y-1" vertex="1">
          <mxGeometry x="15" y="51" width="220" height="20" as="geometry" />
        </mxCell>
        <mxCell id="7IifN1_Z7r3oow3OCa9Y-7" value="Bandas landsat: NIR:5, Red:4" style="text;html=1;align=center;verticalAlign=middle;resizable=0;points=[];autosize=1;" parent="7IifN1_Z7r3oow3OCa9Y-1" vertex="1">
          <mxGeometry x="250" y="51" width="170" height="20" as="geometry" />
        </mxCell>
        <mxCell id="MIdV5UYUBZviqiHACyQS-0" value="" style="shape=image;verticalLabelPosition=bottom;labelBackgroundColor=#ffffff;verticalAlign=top;aspect=fixed;imageAspect=0;image=https://eos.com/wp-content/themes/eos/images/make-an-analyses/ndvi/ndvi_sp.jpg;" vertex="1" parent="7IifN1_Z7r3oow3OCa9Y-1">
          <mxGeometry x="450" y="300" width="380" height="208.27" as="geometry" />
        </mxCell>
      </root>
    </mxGraphModel>
  </diagram>
  <diagram id="ejLN919LEC9eJ7iqA3oW" name="EVI">
    <mxGraphModel dx="828" dy="492" grid="1" gridSize="10" guides="1" tooltips="1" connect="1" arrows="1" fold="1" page="1" pageScale="1" pageWidth="827" pageHeight="1169" math="0" shadow="0">
      <root>
        <mxCell id="2JSpopt0I7U4yRGXGbnB-0" />
        <mxCell id="2JSpopt0I7U4yRGXGbnB-1" parent="2JSpopt0I7U4yRGXGbnB-0" />
        <mxCell id="_RATUDPB6bmf-iQsIOvk-0" value="&lt;span style=&quot;color: rgba(0 , 0 , 0 , 0.87) ; font-family: &amp;#34;arial&amp;#34; , , sans-serif ; font-size: 24px ; text-align: left ; background-color: rgb(255 , 255 , 255)&quot;&gt;Índice de vegetación mejorada&lt;/span&gt;" style="text;html=1;align=center;verticalAlign=middle;resizable=0;points=[];autosize=1;" vertex="1" parent="2JSpopt0I7U4yRGXGbnB-1">
          <mxGeometry x="12" y="20" width="340" height="20" as="geometry" />
        </mxCell>
        <mxCell id="_RATUDPB6bmf-iQsIOvk-2" value="Formula:&amp;nbsp;&lt;span style=&quot;box-sizing: border-box ; font-family: &amp;#34;montserrat&amp;#34; , &amp;#34;arial&amp;#34; , &amp;#34;helvetica&amp;#34; , sans-serif ; background-color: rgb(255 , 255 , 255)&quot;&gt;&lt;font style=&quot;font-size: 12px&quot;&gt;EVI = 2.5 * ( NIR – RED ) / ( NIR + 6.0 * RED – 7.5 * BLUE+ 1.0 )&lt;/font&gt;&lt;/span&gt;" style="text;html=1;align=center;verticalAlign=middle;resizable=0;points=[];autosize=1;" vertex="1" parent="2JSpopt0I7U4yRGXGbnB-1">
          <mxGeometry x="12" y="51" width="410" height="20" as="geometry" />
        </mxCell>
        <mxCell id="_RATUDPB6bmf-iQsIOvk-3" value="Bandas landsat: NIR:5, Red:4, Blue:" style="text;html=1;align=center;verticalAlign=middle;resizable=0;points=[];autosize=1;" vertex="1" parent="2JSpopt0I7U4yRGXGbnB-1">
          <mxGeometry x="422" y="51" width="210" height="20" as="geometry" />
        </mxCell>
      </root>
    </mxGraphModel>
  </diagram>
</mxfile>
